<svg xmlns="http://www.w3.org/2000/svg" width="208" height="42" viewBox="0 0 208 42" fill="none"><g clip-path="url(#clip0_283_809)"><path d="M83.0492 39.6667L83.2819 30.3336C83.4026 26.9505 82.2416 24.9083 80.4212 23.7425C82.9968 22.9257 84.6643 21.1754 84.9855 17.5005L85.5966 10.5006C86.157 4.08366 83.5508 0.583725 75.3955 0.583725H63.1623L59.5947 41.4171H70.08L71.303 27.4174H71.8851C72.526 27.4174 72.9463 27.9422 72.9487 28.584L72.5622 39.6675C72.5341 40.6592 73.1669 41.4179 74.1564 41.4179H83.4775L83.5282 40.835C83.5282 40.835 83.0242 40.602 83.0468 39.6683L83.0492 39.6667ZM74.5002 17.5005C74.4439 18.1422 73.8746 18.6671 73.2337 18.6671H72.0687L72.7821 10.5006H73.9471C74.588 10.5006 75.0654 11.0255 75.0099 11.6673L74.5002 17.5005ZM25.8997 0.583725L23.3007 30.3336C22.7404 36.7505 18.7863 42 10.6319 42C2.47746 42 -0.560318 36.7497 5.73173e-05 30.3336L2.59904 0.583725H13.0843L10.4346 30.9173C10.3783 31.5591 10.8565 32.0839 11.4982 32.0839C12.1399 32.0839 12.7091 31.5591 12.7647 30.9173L15.4144 0.583725H25.8997ZM99.912 0C91.7567 0 87.8027 5.2503 87.2415 11.6673L84.6425 41.4171H95.1278L95.7905 33.8343H98.1205L97.4579 41.4171H107.943L110.542 11.6673C111.103 5.2503 108.066 0 99.912 0ZM98.8846 25.0833H96.5545L97.7775 11.0827C97.8339 10.4409 98.4031 9.91607 99.0448 9.91607C99.6865 9.91607 100.163 10.4409 100.108 11.0827L98.8846 25.0833ZM60.552 10.5006H55.8919L53.1906 41.4171H42.7053L45.4066 10.5006H40.7464L41.6128 0.583725H61.4192L60.5528 10.5006H60.552ZM35.4172 31.5002H41.2424L40.3761 41.4171H24.0656L27.6324 0.583725H38.1177L35.4164 31.5002H35.4172ZM125.486 0.583725H113.253L109.686 41.4171H120.171L120.833 33.8343H122.581C130.736 33.8343 134.107 28.584 134.668 22.167L135.534 12.251C136.095 5.83403 133.642 0.583725 125.486 0.583725ZM124.132 22.75C124.076 23.3917 123.507 23.9166 122.866 23.9166H121.701L122.873 10.4998H124.038C124.679 10.4998 125.156 11.0247 125.101 11.6664L124.132 22.75ZM150.001 0C141.846 0 137.892 5.2503 137.332 11.6673L135.701 30.3336C135.141 36.7505 138.177 42.0008 146.332 42.0008C154.487 42.0008 158.441 36.7505 159.003 30.3336L160.633 11.6673C161.193 5.2503 158.157 0 150.001 0ZM148.465 30.9173C148.409 31.5591 147.839 32.0839 147.198 32.0839C146.557 32.0839 146.079 31.5591 146.135 30.9173L147.868 11.0835C147.924 10.4417 148.493 9.91688 149.134 9.91688C149.775 9.91688 150.253 10.4417 150.198 11.0835L148.465 30.9173ZM175.579 0.583725H163.346L159.778 41.4171H170.263L170.926 33.8343H172.673C180.828 33.8343 184.199 28.584 184.761 22.167L185.627 12.251C186.187 5.83403 183.734 0.583725 175.579 0.583725ZM174.225 22.75C174.168 23.3917 173.599 23.9166 172.958 23.9166H171.793L172.965 10.4998H174.13C174.771 10.4998 175.249 11.0247 175.193 11.6664L174.225 22.75ZM194.786 2.78882C194.59 1.80761 195.23 0.849788 196.21 0.653869L196.407 0.614363C196.524 0.590982 196.642 0.578888 196.76 0.578888C197.623 0.578888 198.371 1.19325 198.54 2.03981L199.812 8.43741C199.906 8.91149 199.809 9.39524 199.54 9.79917C199.271 10.2031 198.862 10.478 198.388 10.5724L198.192 10.6119C198.075 10.6352 197.957 10.6473 197.838 10.6473C196.976 10.6473 196.228 10.033 196.059 9.18722L194.786 2.78963V2.78882ZM206.086 1.29081C205.911 1.29081 205.735 1.31419 205.565 1.35934C204.799 1.56332 204.276 2.18655 204.2 2.98796C204.175 3.25645 204.152 3.52493 204.13 3.79341L204.124 3.85952C204.081 4.37955 204.036 4.91652 203.972 5.44058C203.847 6.45484 203.598 7.50377 203.23 8.55835C202.577 10.4329 201.583 12.051 200.278 13.3684C198.999 14.6592 197.469 15.6445 195.603 16.3814C194.725 16.7273 193.811 17.0038 192.888 17.203C192.352 17.3183 191.924 17.6109 191.648 18.0479C191.367 18.4938 191.282 19.0412 191.411 19.5895C191.611 20.4409 192.318 21.0133 193.167 21.0133C193.298 21.0133 193.433 20.9996 193.568 20.9714C195.17 20.6384 196.607 20.174 197.962 19.5548C200.464 18.4107 202.552 16.8047 204.168 14.781C205.978 12.5154 207.124 9.87979 207.672 6.72332C207.827 5.83242 207.935 4.88507 208.002 3.81034C208.002 3.80308 208.004 3.59023 208.004 3.59023C208.006 3.44027 208.007 3.28466 208.001 3.12583C207.947 1.92129 206.997 1.29161 206.087 1.29161L206.086 1.29081ZM191.805 11.2641C192.278 11.1698 192.687 10.8949 192.957 10.4909C193.226 10.087 193.322 9.60325 193.228 9.12917L191.956 2.73158C191.788 1.88501 191.039 1.27065 190.177 1.27065C190.058 1.27065 189.94 1.28274 189.823 1.30613L189.627 1.34563C189.153 1.43996 188.744 1.71489 188.475 2.11883C188.206 2.52276 188.109 3.00651 188.203 3.48058L189.476 9.87818C189.645 10.7247 190.392 11.3383 191.255 11.3383C191.373 11.3383 191.492 11.3262 191.607 11.3036L191.805 11.2641Z" fill="white"></path></g><defs><clipPath id="clip0_283_809"><rect width="208" height="42" fill="white"></rect></clipPath></defs></svg>